<svg width="1440" height="1024" viewBox="0 0 1440 1024" fill="none" xmlns="http://www.w3.org/2000/svg">
<rect width="1440" height="1024" fill="white"/>
<path d="M745.06 221L809 167.73L704.459 146L647 199.048L745.06 221ZM705.524 149.845L769.883 163.223L737.903 189.843L675.937 177.162L705.524 149.845ZM738.837 193.638L774.279 164.142L801.101 169.718L744.111 217.195L654.329 197.095L672.721 180.114L738.837 193.638Z" fill="#3A37FD"/>
<path d="M755.106 246L861 158.428L857.556 124.943L687.503 87L591 177.992L594.54 212.525L755.106 246ZM854.294 127.839L857.136 155.462L694.027 121.493L690.118 91.2058L854.294 127.839ZM692.975 124.872L855.174 158.66L754.16 242.202L599.921 210.036L692.975 124.872ZM594.717 179.362L686.755 92.601L690.583 122.273L597.61 207.397L594.717 179.362Z" fill="#3A37FD"/>
<path d="M690 91L854.158 128.058L857 156L693.909 121.633L690 91Z" fill="#3A37FD"/>
<path d="M597.857 208L595 179.922L686.206 93L690 122.728L597.857 208Z" fill="#3A37FD"/>
<path d="M754.096 243L855 158.981L692.948 125L600 210.651L754.096 243ZM704.243 146.438L808.87 168.251L744.877 221.724L646.737 199.688L704.243 146.438Z" fill="white"/>
<path d="M654 197.541L672.421 180.257L738.639 194.023L774.137 164L801 169.676L743.922 218L654 197.541Z" fill="#3A37FD"/>
<path d="M104.564 734.548L69 810L173.237 785.498L203 713L104.564 734.548ZM170.65 782.474L106.482 797.555L124.274 759.844L185.972 745.143L170.65 782.474ZM121.799 756.799L102.058 798.591L75.3171 804.877L107.009 737.618L197.144 717.895L187.612 741.107L121.799 756.799Z" fill="#3A37FD"/>
<path d="M84.8425 716.256L26 840.36L70.9345 918L241.117 880.804L290 757.548L244.525 679L84.8425 716.256ZM72.6685 914.015L30.7624 841.444L192.972 803.568L236.956 878.105L72.6685 914.015ZM192.487 800.051L31.1517 837.721L87.2692 719.313L240.672 683.53L192.487 800.051ZM286.047 757.871L239.434 875.416L195.783 801.388L243.958 684.948L286.047 757.871Z" fill="#3A37FD"/>
<path d="M237 878.236L72.8636 914L31 841.723L193.045 804L237 878.236Z" fill="#3A37FD"/>
<path d="M244.024 685L286 758.126L239.533 876L196 801.771L244.024 685Z" fill="#3A37FD"/>
<path d="M86.9727 718.983L31 838L191.919 800.136L240 683L86.9727 718.983ZM172.697 785.461L68.8547 810.029L104.284 734.373L202.347 712.766L172.697 785.461Z" fill="white"/>
<path d="M197 718L187.455 741.218L121.533 756.909L101.784 798.712L75 805L106.737 737.738L197 718Z" fill="#3A37FD"/>
<path d="M484.925 730.47L484.359 730.525L415.863 793.797L448.407 856.801L541.851 848.962L609.393 784.589L577.853 722.751L577.556 721.449L484.925 730.47ZM538.327 845.711L450.426 853.081L420.891 795.746L509.054 788.295L538.327 845.711ZM423.293 791.995L485.833 733.943L570.912 725.649L509.327 784.711L423.293 791.995ZM604.976 783.751L541.634 844.413L512.275 786.866L575.617 726.194L604.976 783.751Z" fill="#3A37FD"/>
<path d="M570.907 725.644L509.347 784.726L423.293 792L485.833 733.933L570.907 725.644Z" fill="#3A37FD"/>
<path d="M509.044 788.295L538.327 845.706L450.416 853.081L420.88 795.746L509.044 788.295Z" fill="white"/>
<path d="M575.617 726.194L604.976 783.751L541.634 844.413L512.275 786.851L575.617 726.194Z" fill="white"/>
<path d="M1280.02 143.719L1279.51 143.942L1193.46 296.578L1243.44 346.877L1330.19 311.283L1415 157.884L1366.32 108.414L1365.63 107.248L1280.02 143.719ZM1325.87 309.234L1244.26 342.717L1198.82 296.927L1280.66 263.297L1325.87 309.234ZM1200.01 292.631L1281.93 146.743L1360.58 113.24L1279.88 259.798L1200.01 292.631ZM1410.56 158.409L1328.63 306.997L1283.32 260.934L1365.22 112.341L1410.56 158.409Z" fill="#3A37FD"/>
<path d="M1360.57 113.24L1279.88 259.798L1200.01 292.626L1281.92 146.748L1360.57 113.24Z" fill="#3A37FD"/>
<path d="M1280.67 263.297L1325.87 309.234L1244.26 342.717L1198.83 296.926L1280.67 263.297Z" fill="white"/>
<path d="M1365.22 112.351L1410.54 158.409L1328.63 307.007L1283.32 260.944L1365.22 112.351Z" fill="white"/>
<path d="M496 557.636L493.932 555.861V555.613H493.685L407.865 482L321 485.723L335.726 662L493.63 559.189H494.084V558.916L496 557.636ZM406.629 485.592L488.486 555.855L415.863 558.805L327.707 488.996L406.629 485.592ZM338.596 654.311L324.979 491.333L412.787 560.884L338.596 654.311ZM345.354 651.493L416.161 562.336L486.685 559.472L345.354 651.493Z" fill="#3A37FD"/>
<path d="M489 556.019L416.28 559L328 488.426L407.028 485L489 556.019Z" fill="#3A37FD"/>
<path d="M413 560.56L338.636 654L325 491L413 560.56Z" fill="white"/>
<path d="M1022.66 706.638C1019.15 702.809 1014.86 699.781 1010.08 697.758H1010.02L846.852 642.013C842.44 639.792 837.624 638.488 832.694 638.18C827.764 637.873 822.823 638.568 818.169 640.225C813.516 641.881 809.246 644.464 805.619 647.817C801.993 651.171 799.083 655.225 797.068 659.734C795.052 664.244 793.972 669.115 793.892 674.054C793.813 678.993 794.736 683.897 796.605 688.469C798.475 693.041 801.252 697.186 804.77 700.655C808.287 704.123 812.471 706.842 817.069 708.647V708.647L817.412 708.763C818.189 709.066 818.977 709.334 819.774 709.581L982.931 765.614C990.628 768.507 999.076 768.719 1006.91 766.216C1014.74 763.713 1021.5 758.642 1026.1 751.822C1030.69 745.001 1032.85 736.831 1032.22 728.632C1031.6 720.433 1028.23 712.684 1022.65 706.638H1022.66ZM820.945 706.244L818.543 705.416C810.45 702.276 803.912 696.086 800.334 688.177C796.756 680.268 796.424 671.272 799.408 663.12C802.393 654.969 808.456 648.313 816.295 644.585C824.134 640.856 833.123 640.351 841.33 643.178C849.537 646.006 856.307 651.941 860.186 659.707C864.064 667.473 864.741 676.45 862.072 684.71C859.402 692.97 853.598 699.853 845.908 703.879C838.218 707.906 829.255 708.755 820.945 706.244V706.244ZM984.163 762.277L834.701 710.949C841.41 710.19 847.777 707.587 853.095 703.428C858.414 699.269 862.475 693.717 864.828 687.389C867.182 681.061 867.735 674.204 866.427 667.581C865.119 660.957 862 654.826 857.417 649.868C857.145 649.575 856.852 649.288 856.574 649L1008.75 700.994C1016.68 704.392 1022.96 710.755 1026.25 718.725C1029.55 726.694 1029.59 735.636 1026.38 743.638C1023.17 751.641 1016.95 758.069 1009.06 761.547C1001.17 765.026 992.233 765.279 984.158 762.252L984.163 762.277Z" fill="#3A37FD"/>
<path d="M852.93 698.95C848.697 702.846 843.519 705.569 837.91 706.849C832.301 708.128 826.454 707.92 820.95 706.244L818.548 705.416C811.874 702.806 806.231 698.095 802.471 691.994C798.712 685.893 797.04 678.734 797.709 671.599C798.378 664.464 801.351 657.741 806.179 652.445C811.007 647.149 817.427 643.569 824.47 642.244C831.512 640.92 838.795 641.924 845.216 645.104C851.638 648.285 856.85 653.469 860.065 659.873C863.28 666.278 864.323 673.555 863.037 680.604C861.75 687.654 858.204 694.094 852.935 698.95H852.93Z" fill="#3A37FD"/>
<path d="M1018.18 755.669C1013.69 759.834 1008.12 762.661 1002.11 763.832C996.104 765.003 989.887 764.471 984.163 762.297L834.701 710.969C841.41 710.21 847.777 707.607 853.095 703.448C858.414 699.289 862.475 693.737 864.828 687.409C867.182 681.081 867.735 674.224 866.427 667.601C865.119 660.977 862 654.846 857.417 649.888C857.145 649.595 856.852 649.308 856.574 649.02L1008.75 701.015C1013.82 703.181 1018.26 706.581 1021.68 710.904C1025.1 715.228 1027.38 720.338 1028.31 725.768C1029.25 731.199 1028.81 736.778 1027.04 741.996C1025.27 747.214 1022.22 751.906 1018.17 755.644L1018.18 755.669Z" fill="white"/>
<path d="M981.265 202.766C981.252 207.959 982.355 213.095 984.501 217.824L984.526 217.885L1031.08 296.129C1032.83 300.739 1035.49 304.948 1038.91 308.502C1042.33 312.055 1046.43 314.88 1050.97 316.805C1055.51 318.731 1060.39 319.718 1065.32 319.707C1070.26 319.696 1075.13 318.686 1079.66 316.74C1084.19 314.793 1088.28 311.95 1091.69 308.381C1095.09 304.812 1097.73 300.591 1099.46 295.972C1101.19 291.354 1101.96 286.434 1101.74 281.508C1101.52 276.582 1100.3 271.752 1098.16 267.31V267.31L1097.98 266.992C1097.62 266.245 1097.21 265.513 1096.8 264.791L1050.45 186.35C1046.75 179.005 1040.68 173.121 1033.23 169.651C1025.77 166.181 1017.36 165.327 1009.36 167.227C1001.36 169.127 994.237 173.671 989.138 180.122C984.039 186.574 981.265 194.558 981.265 202.781V202.766ZM1093.68 266.467L1094.9 268.703C1098.75 276.52 1099.39 285.539 1096.67 293.819C1093.94 302.1 1088.08 308.983 1080.34 312.988C1072.6 316.993 1063.59 317.8 1055.26 315.237C1046.93 312.674 1039.94 306.945 1035.79 299.281C1031.63 291.616 1030.65 282.629 1033.06 274.25C1035.46 265.872 1041.06 258.77 1048.64 254.472C1056.22 250.174 1065.19 249.023 1073.61 251.266C1082.04 253.509 1089.24 258.967 1093.68 266.467V266.467ZM1047.3 187.945L1086.78 253.67C1081.33 249.682 1074.89 247.28 1068.16 246.732C1061.44 246.184 1054.69 247.511 1048.67 250.565C1042.65 253.62 1037.6 258.282 1034.07 264.035C1030.54 269.788 1028.68 276.407 1028.68 283.156C1028.68 283.559 1028.68 283.963 1028.71 284.367L987.696 216.31C984.163 208.438 983.851 199.495 986.829 191.396C989.807 183.297 995.837 176.686 1003.63 172.979C1011.42 169.271 1020.35 168.761 1028.52 171.558C1036.68 174.356 1043.42 180.238 1047.3 187.945V187.945Z" fill="#3A37FD"/>
<path d="M1065.23 250.147C1070.98 250.15 1076.64 251.658 1081.63 254.521C1086.62 257.384 1090.78 261.502 1093.68 266.467L1094.9 268.703C1098.03 275.146 1098.99 282.435 1097.62 289.468C1096.24 296.502 1092.62 302.898 1087.29 307.69C1081.96 312.482 1075.22 315.409 1068.08 316.03C1060.94 316.651 1053.8 314.932 1047.72 311.132C1041.64 307.332 1036.97 301.657 1034.41 294.966C1031.84 288.275 1031.52 280.931 1033.5 274.043C1035.48 267.156 1039.64 261.098 1045.37 256.787C1051.09 252.476 1058.06 250.145 1065.23 250.147V250.147Z" fill="white"/>
<path d="M1017.82 169.757C1023.94 169.739 1029.95 171.431 1035.16 174.641C1040.37 177.852 1044.59 182.455 1047.32 187.93L1086.8 253.655C1081.35 249.667 1074.91 247.265 1068.18 246.717C1061.46 246.169 1054.71 247.496 1048.69 250.55C1042.67 253.605 1037.62 258.267 1034.09 264.02C1030.56 269.773 1028.7 276.391 1028.7 283.141C1028.7 283.544 1028.7 283.948 1028.73 284.352L987.717 216.295C985.462 211.268 984.501 205.757 984.921 200.263C985.341 194.77 987.129 189.469 990.122 184.844C993.114 180.218 997.216 176.414 1002.05 173.779C1006.89 171.144 1012.31 169.762 1017.82 169.757Z" fill="#3A37FD"/>
<path d="M248.117 544.117C239.667 527.287 224.998 508.64 206.799 491.618C188.601 474.596 169.025 461.184 151.675 453.869C133.78 446.327 120.191 446.156 113.421 453.364L95.1021 472.946C88.3277 480.179 89.3979 493.723 98.1309 511.083C106.576 527.908 121.251 546.556 139.449 563.583C157.647 580.61 177.218 594.017 194.573 601.332C203.72 605.188 211.736 607.117 218.299 607.117C224.573 607.117 229.515 605.35 232.822 601.811L251.146 582.23C257.9 575.016 256.83 561.473 248.117 544.117ZM230.227 599.418C224.624 605.405 212.125 604.926 195.931 598.096C178.955 590.938 159.747 577.773 141.847 561.023C123.946 544.274 109.539 525.98 101.271 509.534C93.3858 493.824 92.0784 481.381 97.6817 475.394L109.206 463.082C108.313 470.472 110.721 480.19 116.435 491.537C124.885 508.367 139.56 527.01 157.758 544.037C175.956 561.064 195.527 574.471 212.882 581.786C222.024 585.642 230.046 587.571 236.608 587.571C238.337 587.579 240.062 587.425 241.762 587.111L230.227 599.418ZM248.552 579.837C242.948 585.824 230.449 585.345 214.255 578.515C197.274 571.357 178.071 558.191 160.171 541.442C142.271 524.693 127.864 506.404 119.595 489.952C111.71 474.243 110.403 461.805 116.001 455.818C118.606 453.031 122.7 451.648 127.965 451.648C134.022 451.648 141.635 453.486 150.302 457.135C167.279 464.293 186.486 477.459 204.386 494.208C222.287 510.957 236.694 529.251 244.962 545.698C252.847 561.417 254.155 573.85 248.552 579.837V579.837Z" fill="#3A37FD"/>
<path d="M248.552 579.837C242.948 585.824 230.449 585.344 214.255 578.515C197.274 571.356 178.071 558.191 160.171 541.442C142.271 524.693 127.864 506.404 119.595 489.952C111.71 474.243 110.403 461.805 116.001 455.818C118.606 453.031 122.7 451.648 127.965 451.648C134.022 451.648 141.635 453.485 150.302 457.135C167.279 464.293 186.486 477.458 204.386 494.208C222.287 510.957 236.694 529.251 244.962 545.697C252.847 561.417 254.155 573.85 248.552 579.837Z" fill="white"/>
<path d="M241.757 587.096L230.227 599.418C224.624 605.405 212.125 604.926 195.931 598.096C178.955 590.938 159.747 577.773 141.847 561.023C123.946 544.274 109.539 525.98 101.271 509.534C93.3858 493.824 92.0784 481.381 97.6816 475.394L109.206 463.082C108.313 470.472 110.721 480.189 116.435 491.537C124.885 508.367 139.56 527.01 157.758 544.037C175.956 561.064 195.527 574.471 212.882 581.786C222.024 585.642 230.045 587.571 236.608 587.571C238.335 587.574 240.059 587.415 241.757 587.096Z" fill="#3A37FD"/>
<path d="M188.041 205.356C185.517 224.033 187.087 247.688 192.493 272.02C197.9 296.351 206.481 318.461 216.673 334.302C227.183 350.627 238.299 358.442 247.971 356.296L386.251 327.886C395.923 325.746 402.692 313.964 405.297 294.711C407.821 276.058 406.246 252.378 400.84 228.077C395.433 203.776 386.857 181.635 376.665 165.795C371.294 157.445 365.766 151.327 360.35 147.622C355.17 144.088 350.092 142.745 345.367 143.8L207.082 172.18C197.41 174.331 190.646 186.113 188.041 205.356ZM346.135 147.223C354.136 145.446 364.181 152.902 373.692 167.682C383.661 183.175 392.076 204.886 397.417 228.819C402.758 252.752 404.293 275.982 401.824 294.236C399.462 311.657 393.515 322.661 385.509 324.438L256.941 350.688C261.853 345.09 265.336 335.7 267.037 323.121C269.561 304.443 267.986 280.783 262.58 256.457C257.173 232.13 248.592 210.015 238.4 194.174C233.034 185.83 227.501 179.707 222.09 176.002C220.668 175.021 219.157 174.176 217.577 173.478L346.135 147.223ZM207.849 175.628C215.855 173.851 225.901 181.307 235.406 196.088C245.381 211.59 253.796 233.297 259.107 257.224C264.417 281.152 265.987 304.383 263.514 322.641C261.146 340.062 255.205 351.062 247.204 352.843C243.478 353.671 239.319 352.5 234.972 349.532C229.97 346.104 224.73 340.294 219.636 332.369C209.667 316.871 201.252 295.16 195.911 271.232C190.57 247.305 189.035 224.069 191.509 205.805C193.897 188.415 199.843 177.405 207.849 175.628Z" fill="#3A37FD"/>
<path d="M207.849 175.628C215.856 173.851 225.901 181.307 235.406 196.088C245.381 211.59 253.796 233.297 259.107 257.224C264.417 281.152 265.987 304.383 263.514 322.641C261.146 340.062 255.205 351.062 247.204 352.843C243.478 353.671 239.319 352.5 234.972 349.532C229.97 346.104 224.73 340.294 219.637 332.369C209.667 316.871 201.252 295.16 195.911 271.232C190.57 247.305 189.035 224.069 191.509 205.805C193.897 188.415 199.843 177.405 207.849 175.628Z" fill="#3A37FD"/>
<path d="M217.557 173.472L346.134 147.223C354.136 145.446 364.181 152.902 373.692 167.682C383.661 183.175 392.076 204.886 397.417 228.819C402.758 252.751 404.293 275.982 401.824 294.236C399.462 311.657 393.515 322.661 385.509 324.438L256.941 350.688C261.853 345.09 265.336 335.7 267.037 323.121C269.561 304.443 267.986 280.783 262.58 256.457C257.173 232.13 248.592 210.015 238.4 194.174C233.034 185.83 227.501 179.707 222.09 176.002C220.662 175.018 219.144 174.171 217.557 173.472V173.472Z" fill="white"/>
<path d="M451.364 351.632C449.037 352.091 447.255 353.106 446.058 354.661C442.525 359.264 444.958 367.417 453.025 378.25C460.556 388.346 472.207 399.643 485.776 410.007C499.345 420.37 513.313 428.614 525.06 433.228C531.561 435.752 536.978 437.044 541.178 437.044C545.095 437.044 547.952 435.939 549.643 433.717C550.432 432.673 550.936 431.441 551.107 430.143L581.098 292.959L451.364 351.632ZM547.639 429.457L547.442 430.366C547.311 430.8 547.104 431.209 546.832 431.572C544.484 434.651 536.821 434.041 526.342 429.936C514.893 425.454 501.248 417.387 487.911 407.22C459.047 385.191 444.165 362.985 448.86 356.826C448.947 356.719 449.04 356.616 449.138 356.518L452.404 355.044C453.092 354.937 453.787 354.885 454.483 354.888C458.173 354.888 463.292 356.089 469.355 358.462C480.799 362.944 494.448 371.011 507.78 381.178C533.984 401.163 548.664 421.299 547.649 429.457H547.639ZM549.421 421.299C548.008 417.998 545.756 414.232 542.682 410.128C535.146 400.032 523.5 388.735 509.926 378.371C496.352 368.007 482.389 359.764 470.647 355.15C467.041 353.688 463.304 352.574 459.486 351.824L576.12 299.067L549.421 421.299Z" fill="#3A37FD"/>
<path d="M576.13 299.082L549.431 421.299C548.018 417.998 545.766 414.232 542.692 410.128C535.156 400.032 523.51 388.735 509.936 378.371C496.362 368.008 482.399 359.764 470.657 355.15C467.051 353.688 463.314 352.574 459.496 351.824L576.13 299.082Z" fill="white"/>
<path d="M547.649 429.457L547.453 430.365C547.321 430.8 547.114 431.209 546.842 431.572C544.494 434.651 536.832 434.04 526.352 429.936C514.903 425.454 501.258 417.387 487.921 407.22C459.057 385.191 444.175 362.985 448.87 356.826C448.957 356.719 449.05 356.616 449.148 356.518L452.414 355.044C453.102 354.937 453.797 354.885 454.493 354.888C458.184 354.888 463.302 356.089 469.365 358.462C480.809 362.944 494.459 371.011 507.79 381.178C533.984 401.163 548.664 421.299 547.649 429.457Z" fill="#3A37FD"/>
<path d="M1264.46 781.393C1266.83 781.625 1268.83 781.171 1270.43 780.016C1275.14 776.631 1275.19 768.13 1270.59 755.436C1266.3 743.585 1258.42 729.423 1248.39 715.579C1238.35 701.735 1227.37 689.814 1217.44 682.019C1211.94 677.7 1207.11 674.915 1203.08 673.704C1199.32 672.569 1196.26 672.801 1193.97 674.436C1192.92 675.208 1192.08 676.24 1191.54 677.433L1123 800L1264.46 781.393ZM1194.68 679.093L1195.13 678.28C1195.38 677.903 1195.7 677.572 1196.06 677.302C1199.21 675.036 1206.38 677.836 1215.25 684.794C1224.93 692.392 1235.68 704.056 1245.52 717.648C1266.82 747.071 1274.65 772.64 1268.36 777.15C1268.25 777.229 1268.13 777.302 1268 777.367L1264.46 777.832C1263.78 777.735 1263.1 777.585 1262.44 777.383C1258.9 776.313 1254.35 773.684 1249.21 769.658C1239.53 762.06 1228.78 750.396 1218.94 736.809C1199.58 710.11 1191.34 686.6 1194.68 679.093ZM1190.63 686.368C1191.03 689.935 1192.11 694.162 1193.86 698.981C1198.15 710.837 1206.04 724.994 1216.07 738.837C1226.09 752.681 1237.09 764.603 1247.01 772.398C1250.04 774.842 1253.31 776.989 1256.75 778.81L1129.57 795.54L1190.63 686.368Z" fill="#1717CC"/>
<path d="M1130 795L1190.98 686C1191.38 689.56 1192.46 693.78 1194.21 698.589C1198.49 710.423 1206.37 724.552 1216.38 738.37C1226.39 752.188 1237.36 764.087 1247.27 771.867C1250.3 774.306 1253.56 776.449 1257 778.267L1130 795Z" fill="white"/>
<path d="M1194.73 678.579L1195.18 677.761C1195.43 677.381 1195.75 677.047 1196.12 676.776C1199.29 674.495 1206.51 677.314 1215.43 684.319C1225.17 691.97 1235.99 703.715 1245.89 717.4C1267.32 747.027 1275.21 772.773 1268.88 777.314C1268.76 777.394 1268.64 777.467 1268.52 777.533L1264.95 778C1264.27 777.902 1263.58 777.751 1262.92 777.548C1259.35 776.471 1254.77 773.824 1249.61 769.77C1239.87 762.12 1229.05 750.375 1219.15 736.694C1199.66 709.811 1191.37 686.138 1194.73 678.579Z" fill="#3A37FD"/>
<path d="M921 375.25L838.364 432L783 373L921 375.25Z" fill="white"/>
<path d="M844 523L784 379L836.262 435.13L844 523Z" fill="#3A37FD"/>
<path d="M922 379L848.135 527L840 435.325L922 379Z" fill="white"/>
<path d="M781.132 372.831L784 379L777 372.263L779.689 370L782.658 372.855L781.132 372.831Z" fill="white"/>
<path d="M921.841 379L923.492 375.274L921 375.222L925.16 372L927 375.003L921.841 379Z" fill="white"/>
<path d="M776 369L846.472 538L929 371.521L776 369ZM920.646 374.916L838.113 432.002L782.793 372.653L920.646 374.916ZM784.077 379.211L836.145 435.084L843.854 522.555L784.077 379.211ZM847.817 527.35L839.695 435.195L921.562 378.564L847.817 527.35Z" fill="#3A37FD"/>
<path d="M884.465 903.672C880.095 905.45 875.421 906.359 870.704 906.347C862.516 906.335 854.567 903.584 848.122 898.533C841.678 893.482 837.108 886.42 835.14 878.472L884.465 903.672Z" fill="#3A37FD"/>
<path d="M888.654 901.723L888.513 901.794L834.348 874.121C833.533 867.426 834.586 860.637 837.39 854.503C840.193 848.369 844.639 843.13 850.234 839.365L851.698 838.356L835.04 813.691L745.266 754.902L744.291 755.558C735.051 761.793 727.528 770.254 722.417 780.16C717.306 790.067 714.772 801.101 715.048 812.245C715.323 823.389 718.4 834.284 723.994 843.926C729.588 853.568 737.52 861.647 747.058 867.417L828.755 921.173C838.663 929.27 850.702 934.329 863.42 935.742C876.138 937.154 888.993 934.859 900.436 929.134L902.017 928.342L888.654 901.723ZM884.465 903.692C880.095 905.47 875.421 906.379 870.704 906.368C862.516 906.355 854.567 903.605 848.123 898.553C841.678 893.502 837.108 886.441 835.14 878.492L884.465 903.692ZM748.971 864.459L748.915 864.424C739.809 858.891 732.243 851.153 726.916 841.925C719.091 828.321 716.638 812.282 720.041 796.961C723.445 781.641 732.457 768.148 745.306 759.137L831.879 815.837C824.709 821 818.641 827.543 814.033 835.083C809.425 842.622 806.37 851.006 805.046 859.743C803.721 868.479 804.156 877.392 806.322 885.959C808.489 894.525 812.345 902.573 817.664 909.629L748.971 864.459ZM870.704 932.607C857.391 932.607 844.422 928.381 833.664 920.538C822.907 912.695 814.916 901.64 810.843 888.966C806.77 876.291 806.825 862.651 811 850.01C815.175 837.369 823.255 826.379 834.075 818.623L846.801 837.457C840.009 842.485 834.975 849.526 832.417 857.58C829.858 865.634 829.906 874.29 832.552 882.316C835.198 890.341 840.309 897.328 847.156 902.281C854.003 907.233 862.238 909.9 870.689 909.901C876.325 909.919 881.901 908.735 887.044 906.428L897.226 926.751C888.925 930.637 879.869 932.64 870.704 932.617V932.607Z" fill="#3A37FD"/>
<path d="M897.241 926.752C888.936 930.639 879.874 932.642 870.704 932.617C857.388 932.62 844.415 928.395 833.655 920.552C822.895 912.709 814.902 901.652 810.828 888.975C806.755 876.297 806.811 862.654 810.989 850.011C815.167 837.368 823.251 826.377 834.075 818.623L846.801 837.457C840.009 842.485 834.975 849.526 832.417 857.58C829.858 865.635 829.906 874.29 832.552 882.316C835.198 890.342 840.309 897.328 847.156 902.281C854.003 907.233 862.238 909.9 870.689 909.901C876.325 909.919 881.901 908.735 887.044 906.428L897.241 926.752Z" fill="white"/>
<path d="M804.292 869.744C804.275 884.149 808.97 898.165 817.659 909.654L748.966 864.459L748.91 864.424C739.804 858.891 732.238 851.153 726.911 841.925C719.085 828.321 716.633 812.282 720.036 796.961C723.439 781.641 732.452 768.148 745.301 759.137L831.874 815.837C823.329 821.989 816.371 830.087 811.575 839.46C806.779 848.834 804.282 859.215 804.292 869.744V869.744Z" fill="#3A37FD"/>
<path d="M691.038 517.96C689.221 513.796 682.159 512.847 670.059 515.123C659.064 517.188 645.253 521.721 631.164 527.88C617.075 534.038 604.379 541.105 595.394 547.769C585.505 555.114 581.411 560.939 583.233 565.099C584.409 567.794 587.776 569.137 593.299 569.137C596.64 569.085 599.97 568.747 603.253 568.127L603.289 568.168L603.365 568.102C603.647 568.052 603.925 568.011 604.213 567.951C615.207 565.881 629.018 561.348 643.082 555.189C657.146 549.031 669.872 541.969 678.857 535.305C688.767 527.94 692.861 522.125 691.038 517.96ZM641.709 551.949C630.508 556.84 619.498 560.687 610.028 563.054C618.478 557.188 629.796 551.04 642.335 545.563C652.448 541.135 662.896 537.52 673.582 534.75C665.066 540.56 653.92 546.618 641.709 551.949ZM680.372 529.616C668.862 531.797 654.122 536.542 640.902 542.327C624.874 549.334 610.725 557.471 601.85 564.77C596.015 565.72 587.645 566.325 586.489 563.69C585.212 560.767 592.819 554.099 597.519 550.606C606.292 544.094 618.756 537.173 632.603 531.115C646.449 525.058 659.993 520.616 670.735 518.591C674.214 517.919 677.743 517.547 681.286 517.481C684.531 517.481 687.207 517.986 687.848 519.374C688.782 521.62 684.511 526.088 680.352 529.616H680.372Z" fill="#3A37FD"/>
<path d="M734.28 528.4L723.537 503.826C719.565 494.739 706.707 490.383 687.313 491.524C668.519 492.634 645.591 498.743 622.759 508.722C599.927 518.702 579.851 531.398 566.292 544.447C552.289 557.9 546.761 570.308 550.734 579.384L561.476 603.963C565.01 612.091 575.717 616.447 591.835 616.447C593.719 616.447 595.675 616.386 597.701 616.265C616.494 615.155 639.422 609.047 662.255 599.062C685.087 589.077 705.163 576.391 718.722 563.347C732.725 549.889 738.247 537.476 734.28 528.4ZM553.97 577.971C550.684 570.46 556.07 559.167 568.74 546.986C582.027 534.225 601.714 521.787 624.172 511.968C646.631 502.15 669.13 496.138 687.525 495.058C689.458 494.936 691.321 494.886 693.113 494.886C707.596 494.886 717.374 498.556 720.302 505.244C723.583 512.756 718.202 524.048 705.526 536.229C692.245 548.995 672.558 561.439 650.099 571.257C627.64 581.076 605.141 587.078 586.747 588.168C569.2 589.203 557.256 585.488 553.97 577.971ZM716.273 560.808C702.987 573.569 683.3 586.007 660.841 595.826C638.383 605.644 615.884 611.661 597.489 612.742C579.942 613.751 567.998 610.061 564.717 602.545L557.958 587.088C563.364 590.233 571.204 591.873 581.093 591.873C582.976 591.873 584.929 591.818 586.953 591.697C605.752 590.591 628.68 584.478 651.512 574.498C674.345 564.518 694.421 551.832 707.974 538.783C717.132 529.98 722.664 521.62 724.285 514.371L731.059 529.818C734.33 537.33 728.944 548.637 716.273 560.803V560.808Z" fill="#3A37FD"/>
<path d="M720.302 505.224C717.374 498.536 707.596 494.866 693.113 494.866C691.321 494.866 689.458 494.916 687.525 495.037C669.13 496.118 646.636 502.105 624.172 511.948C601.709 521.792 582.027 534.205 568.74 546.966C556.07 559.147 550.683 570.439 553.97 577.951C557.256 585.462 569.2 589.183 586.746 588.148C605.141 587.058 627.635 581.081 650.099 571.237C672.563 561.393 692.245 548.975 705.526 536.209C718.202 524.048 723.583 512.756 720.302 505.224ZM678.878 535.275C669.892 541.938 657.171 549.001 643.102 555.159C629.034 561.318 615.207 565.851 604.233 567.921C603.945 567.981 603.667 568.021 603.385 568.072L603.309 568.138L603.274 568.097C599.99 568.717 596.66 569.055 593.319 569.107C587.802 569.107 584.429 567.759 583.253 565.068C581.431 560.909 585.525 555.083 595.414 547.739C604.399 541.075 617.12 534.013 631.184 527.849C645.248 521.686 659.084 517.158 670.079 515.093C682.194 512.816 689.261 513.765 691.059 517.93C692.856 522.095 688.767 527.94 678.878 535.295V535.275Z" fill="white"/>
<path d="M680.352 529.616C668.842 531.797 654.102 536.542 640.881 542.327C624.854 549.334 610.704 557.471 601.83 564.77C595.995 565.719 587.625 566.325 586.469 563.69C585.192 560.767 592.799 554.099 597.499 550.606C606.272 544.094 618.736 537.173 632.583 531.115C646.429 525.058 659.973 520.616 670.715 518.591C674.194 517.919 677.723 517.547 681.266 517.481C684.511 517.481 687.187 517.986 687.828 519.374C688.782 521.62 684.511 526.088 680.352 529.616Z" fill="#3A37FD"/>
<path d="M716.273 560.803C702.987 573.569 683.3 586.008 660.841 595.826C638.383 605.644 615.884 611.656 597.489 612.742C579.942 613.751 567.998 610.061 564.717 602.545L557.958 587.088C563.364 590.233 571.204 591.873 581.093 591.873C582.976 591.873 584.929 591.818 586.954 591.697C605.752 590.586 628.68 584.478 651.513 574.493C674.345 564.508 694.421 551.827 707.975 538.778C717.132 529.98 722.664 521.615 724.285 514.366L731.059 529.818C734.33 537.33 728.944 548.637 716.273 560.803Z" fill="#3A37FD"/>
<path d="M1176.81 523.952C1179.69 520.412 1177.35 513.698 1169.86 503.924C1163.05 495.045 1152.78 484.766 1140.94 474.977C1129.11 465.188 1117.09 457.048 1107.1 452.047C1096.1 446.546 1089.07 445.535 1086.19 449.049C1084.33 451.319 1084.65 454.944 1087.14 459.869C1088.7 462.828 1090.51 465.646 1092.55 468.293V468.343L1092.65 468.384L1093.15 469.071C1099.96 477.95 1110.23 488.229 1122.07 498.018C1133.91 507.807 1145.92 515.948 1155.92 520.948C1166.89 526.454 1173.92 527.466 1176.81 523.952ZM1161.62 519.689C1154.47 510.401 1143.6 499.394 1132.48 490.206C1119.01 479.083 1105.38 470.123 1094.89 465.507C1091.41 460.724 1087.09 453.523 1088.91 451.294C1090.93 448.831 1100.3 452.598 1105.53 455.217C1115.28 460.097 1127.07 468.09 1138.71 477.707C1150.35 487.324 1160.42 497.427 1167.07 506.088C1169.24 508.889 1171.17 511.873 1172.82 515.007C1174.29 517.904 1175.06 520.513 1174.09 521.702C1172.53 523.598 1166.63 521.803 1161.59 519.689H1161.62Z" fill="#3A37FD"/>
<path d="M1145.07 627.72L1204.37 547.029C1210.66 539.383 1208.74 525.953 1198.94 509.205C1189.46 492.961 1173.65 475.305 1154.44 459.479C1135.23 443.654 1114.85 431.53 1097.09 425.337C1078.78 418.947 1065.23 419.638 1058.94 427.278L999.635 507.969C993.998 514.813 994.956 526.296 1002.24 540.654C1003.09 542.334 1004.03 544.048 1005.05 545.803C1014.54 562.043 1030.35 579.704 1049.57 595.524C1068.78 611.345 1089.15 623.474 1106.91 629.672C1125.23 636.051 1138.77 635.36 1145.07 627.72ZM1061.66 429.523C1066.86 423.198 1079.35 422.891 1095.95 428.665C1113.32 434.717 1133.3 446.639 1152.2 462.203C1171.11 477.766 1186.63 495.094 1195.91 510.99C1196.89 512.671 1197.78 514.305 1198.59 515.892C1205.14 528.793 1206.29 539.162 1201.66 544.795C1196.45 551.119 1183.96 551.432 1167.37 545.647C1150 539.595 1130.02 527.683 1111.12 512.115C1092.22 496.547 1076.69 479.223 1067.41 463.332C1058.55 448.177 1056.48 435.857 1061.66 429.533V429.523ZM1108.05 626.323C1090.67 620.271 1070.69 608.349 1051.79 592.786C1032.9 577.222 1017.36 559.899 1008.08 544.003C999.226 528.838 997.129 516.518 1002.34 510.214L1055.33 437.214C1054.97 443.452 1057.06 451.178 1061.52 459.983C1062.38 461.665 1063.31 463.379 1064.33 465.128C1073.82 481.372 1089.63 499.033 1108.84 514.853C1128.05 530.674 1148.43 542.808 1166.18 548.996C1178.17 553.172 1188.1 554.326 1195.3 552.481L1142.32 625.481C1137.15 631.8 1124.64 632.113 1108.07 626.333L1108.05 626.323Z" fill="#3A37FD"/>
<path d="M1201.2 544.987C1205.82 539.319 1204.67 528.887 1198.15 515.907C1197.34 514.297 1196.46 512.653 1195.49 510.975C1186.24 494.981 1170.78 477.546 1151.96 461.887C1133.14 446.228 1113.24 434.248 1095.94 428.144C1079.44 422.334 1067 422.644 1061.8 429.007C1056.61 435.37 1058.7 447.781 1067.52 463.004C1076.77 478.992 1092.22 496.422 1111.05 512.086C1129.87 527.75 1149.76 539.73 1167.06 545.824C1183.58 551.685 1196.02 551.35 1201.2 544.987ZM1155.91 521.534C1145.95 516.516 1133.96 508.341 1122.16 498.523C1110.36 488.704 1100.12 478.383 1093.33 469.473L1092.83 468.783L1092.74 468.743V468.692C1090.7 466.036 1088.89 463.208 1087.34 460.238C1084.86 455.296 1084.53 451.658 1086.39 449.38C1089.26 445.828 1096.27 446.842 1107.23 452.388C1117.2 457.407 1129.18 465.581 1140.98 475.4C1152.79 485.218 1163.02 495.539 1169.81 504.449C1177.28 514.258 1179.61 521.022 1176.74 524.548C1173.87 528.075 1166.86 527.06 1155.91 521.534Z" fill="white"/>
<path d="M1161.95 520.187C1154.73 510.9 1143.73 499.894 1132.49 490.708C1118.87 479.586 1105.09 470.627 1094.48 466.011C1090.96 461.229 1086.59 454.03 1088.44 451.8C1090.48 449.338 1099.96 453.104 1105.24 455.723C1115.1 460.602 1127.02 468.595 1138.79 478.21C1150.56 487.826 1160.74 497.927 1167.46 506.587C1169.66 509.388 1171.6 512.372 1173.28 515.506C1174.76 518.402 1175.55 521.011 1174.56 522.199C1173.01 524.095 1167.04 522.3 1161.95 520.187Z" fill="#3A37FD"/>
<path d="M1107.64 625.884C1090.24 619.839 1070.25 607.932 1051.32 592.387C1032.4 576.842 1016.86 559.539 1007.56 543.662C998.699 528.515 996.599 516.215 1001.81 509.913L1054.86 437C1054.51 443.231 1056.59 450.948 1061.07 459.748C1061.92 461.427 1062.86 463.138 1063.88 464.881C1073.38 481.106 1089.2 498.746 1108.45 514.547C1127.69 530.349 1148.07 542.468 1165.85 548.649C1177.84 552.825 1187.79 553.973 1195 552.135L1141.96 625.028C1136.76 631.344 1124.24 631.657 1107.64 625.884Z" fill="#3A37FD"/>
</svg>
